<?xml version="1.0" encoding="UTF-8"?>
<svg id="b" data-name="Layer 2" xmlns="http://www.w3.org/2000/svg" width="271.945" height="43.204" viewBox="0 0 271.945 43.204">
  <g id="c" data-name="Layer 1">
    <g>
      <path d="M15.111,24.115c1.414-.756,2.519-1.799,3.311-3.129.792-1.329,1.189-2.835,1.189-4.518,0-1.732-.409-3.25-1.226-4.555-.818-1.305-1.945-2.329-3.384-3.073-1.44-.744-3.086-1.116-4.94-1.116H0v25.612h5.891v-8.097c1.853,0,3.374.637,4.367,2.333l3.047,5.764h6.732l-5.409-8.983c.163-.075.325-.153.483-.238ZM12.623,18.901c-.634.622-1.476.933-2.525.933h-4.208v-6.732h4.025c1.098,0,1.982.311,2.652.933.671.622,1.006,1.433,1.006,2.433s-.317,1.811-.951,2.433Z" fill="#07ed71" stroke-width="0"/>
      <path d="M123.951,28.469c-.561,0-.976-.171-1.243-.512-.269-.341-.403-.878-.403-1.61v-6.513h4.171v-4.793h-4.171v-5.708h-5.708v5.708h-2.854v4.793h2.854v7.94c0,1.927.531,3.409,1.591,4.445,1.061,1.037,2.677,1.555,4.848,1.555.638,0,1.3-.125,1.983-.36l-.565-5.025c-.184.051-.353.079-.503.079Z" fill="#07ed71" stroke-width="0"/>
      <path d="M230.034,26.347s-.041-18.623-.041-18.623h-5.667v20.05c-.013,4.52,4.392,6.932,8.448,5.615l-.561-4.991c-1.136.277-2.18-.391-2.179-2.051Z" fill="#07ed71" stroke-width="0"/>
      <path d="M192.396,26.669l-4.705-11.628h-5.886v-7.318h-5.708v9.452c-.391-.558-.848-1.032-1.372-1.421-1.037-.768-2.312-1.152-3.823-1.152-1.708,0-3.177.384-4.409,1.152-1.232.768-2.183,1.866-2.854,3.293-.671,1.427-1.006,3.141-1.006,5.141,0,1.976.335,3.683,1.006,5.122.671,1.44,1.622,2.543,2.854,3.311,1.232.768,2.701,1.152,4.409,1.152,1.512,0,2.786-.384,3.823-1.152.564-.418.963-.947,1.372-1.565l.256,2.278h5.452V15.99l7.414,15.842c.368.786.385,1.692.045,2.492h0c-.219.512-.512.884-.878,1.116-.366.231-.781.347-1.244.347-.268,0-.567-.061-.897-.183-.329-.122-.665-.305-1.006-.549l-.009.019-.453,4.029.049-.377-.19,1.688c.21.081.428.161.658.238.865.293,1.689.439,2.47.439,1.414,0,2.555-.281,3.421-.842.866-.561,1.592-1.342,2.177-2.341.585-1,1.146-2.159,1.683-3.476l8.086-19.392h-6.329l-4.406,11.628ZM175.622,26.438c-.317.647-.756,1.153-1.317,1.518-.561.366-1.195.549-1.902.549-.732,0-1.385-.183-1.957-.549-.574-.366-1.024-.872-1.354-1.518-.329-.646-.506-1.396-.531-2.25.024-.854.201-1.604.531-2.25.329-.646.774-1.153,1.336-1.518.561-.366,1.207-.549,1.939-.549s1.378.183,1.939.549c.561.366,1,.872,1.317,1.518.317.646.476,1.396.476,2.25s-.159,1.604-.476,2.25Z" fill="#07ed71" stroke-width="0"/>
      <path d="M157.547,15.663c-1.317-.707-2.927-1.061-4.83-1.061-1.39,0-2.61.22-3.659.659-.9.377-1.671.868-2.329,1.46l3.554,3.159c1.068-.541,2.513-.965,3.836-.337.251.1.468.233.647.401.439.415.744.988.915,1.72.056.241.1.501.137.768h-4.455c-2.244,0-3.988.476-5.232,1.427-.306.234-.574.498-.804.792-.099-2-.497-3.704-1.199-5.109-.818-1.634-1.921-2.866-3.311-3.695-1.391-.829-2.952-1.244-4.683-1.244-1.927,0-3.623.402-5.086,1.207-1.463.805-2.616,1.927-3.457,3.366-.842,1.44-1.262,3.11-1.262,5.013,0,1.879.414,3.537,1.244,4.976.829,1.44,1.976,2.567,3.44,3.384,1.463.817,3.146,1.226,5.049,1.226,1.293,0,2.512-.183,3.659-.549,1.146-.366,2.164-.927,3.055-1.683.011-.009.02-.019.031-.028l-3.827-3.402c-.147.133-.306.259-.484.375-.622.402-1.385.604-2.287.604-.756,0-1.439-.165-2.049-.494-.61-.329-1.086-.811-1.427-1.445-.243-.45-.394-.952-.465-1.5h12.466c-.311.72-.466,1.561-.466,2.524,0,1.781.597,3.159,1.793,4.134,1.195.976,2.878,1.464,5.049,1.464,2.122,0,3.696-.671,4.72-2.012l.256,1.573h5.342l.073-10.208c0-1.732-.329-3.232-.988-4.5-.659-1.268-1.646-2.256-2.963-2.964ZM132.417,21.847c.077-.567.246-1.045.515-1.427.378-.536.842-.921,1.39-1.153.549-.231,1.091-.348,1.628-.348s1.073.116,1.61.348c.536.232.988.616,1.354,1.153.26.382.424.86.499,1.427h-6.996ZM155.382,27.815c-.305.512-.726.921-1.262,1.226-.536.305-1.159.457-1.866.457s-1.262-.128-1.664-.384c-.403-.256-.604-.604-.604-1.043,0-.609.268-1.085.805-1.427.536-.341,1.331-.506,2.551-.506l2.498-.007c0,.61-.153,1.171-.457,1.683Z" fill="#07ed71" stroke-width="0"/>
      <path d="M50.748,15.663c-1.317-.707-2.927-1.061-4.83-1.061-1.39,0-2.61.22-3.659.659-.9.377-1.671.868-2.329,1.46l3.553,3.159c1.068-.541,2.513-.965,3.836-.337.251.1.468.233.647.401.439.415.744.988.915,1.72.056.241.1.501.137.768h-4.455c-2.244,0-3.988.476-5.232,1.427-.306.234-.574.498-.804.792-.099-2-.497-3.704-1.2-5.109-.818-1.634-1.921-2.866-3.311-3.695-1.391-.829-2.952-1.244-4.683-1.244-1.927,0-3.622.402-5.086,1.207-1.463.805-2.616,1.927-3.458,3.366-.841,1.44-1.262,3.11-1.262,5.013,0,1.879.414,3.537,1.244,4.976.829,1.44,1.976,2.567,3.439,3.384,1.463.817,3.146,1.226,5.049,1.226,1.293,0,2.512-.183,3.659-.549,1.146-.366,2.165-.927,3.055-1.683.011-.009.02-.019.031-.028l-3.827-3.402c-.147.133-.306.259-.484.375-.622.402-1.385.604-2.287.604-.756,0-1.44-.165-2.049-.494-.61-.329-1.086-.811-1.427-1.445-.243-.45-.394-.952-.465-1.5h12.466c-.311.72-.466,1.561-.466,2.524,0,1.781.597,3.159,1.793,4.134,1.195.976,2.878,1.464,5.049,1.464,2.122,0,3.696-.671,4.72-2.012l.256,1.573h5.342l.073-10.208c0-1.732-.329-3.232-.988-4.5-.659-1.268-1.646-2.256-2.963-2.964ZM25.618,21.847c.077-.567.246-1.045.515-1.427.378-.536.842-.921,1.39-1.153.549-.231,1.091-.348,1.628-.348s1.073.116,1.61.348c.536.232.988.616,1.354,1.153.26.382.424.86.499,1.427h-6.996ZM48.584,27.815c-.305.512-.726.921-1.262,1.226-.537.305-1.159.457-1.866.457s-1.262-.128-1.665-.384c-.403-.256-.604-.604-.604-1.043,0-.609.268-1.085.805-1.427.536-.341,1.331-.506,2.551-.506l2.498-.007c0,.61-.153,1.171-.457,1.683Z" fill="#07ed71" stroke-width="0"/>
      <path d="M218.744,8.839c-1.44-.744-3.086-1.116-4.94-1.116h-10.062v25.612h5.891v-8.086h4.354c1.83,0,3.451-.378,4.866-1.134,1.414-.756,2.518-1.799,3.311-3.129.792-1.329,1.189-2.836,1.189-4.518,0-1.732-.409-3.25-1.226-4.555-.818-1.305-1.946-2.329-3.384-3.073ZM216.366,18.901c-.634.622-1.476.933-2.525.933h-4.208v-6.732h4.025c1.098,0,1.982.311,2.652.933.671.622,1.006,1.433,1.006,2.433s-.317,1.811-.951,2.433Z" fill="#07ed71" stroke-width="0"/>
      <path d="M266.237,15.005v2.159c-.391-.558-.847-1.032-1.372-1.421-1.037-.768-2.312-1.152-3.823-1.152-1.708,0-3.177.384-4.409,1.152-1.232.768-2.183,1.866-2.854,3.293-.671,1.427-1.006,3.141-1.006,5.141,0,1.976.335,3.683,1.006,5.122.671,1.44,1.622,2.543,2.854,3.311,1.232.768,2.701,1.152,4.409,1.152,1.512,0,2.786-.384,3.823-1.152.564-.418.963-.947,1.372-1.565l.061.542c0,1.049-.25,2.181-.628,2.876-.379.695-.903,1.207-1.573,1.537-.671.329-1.433.494-2.287.494-1.098,0-2.037-.098-2.817-.293-.781-.195-1.44-.421-1.976-.677-.537-.256-1-.47-1.39-.64l-.004.008-.441,3.922.04-.311.039-.347-.037.335.007-.054-.19,1.688.183-1.634-.002.011-.207,1.84c.106.047.208.094.319.139.78.317,1.725.573,2.835.768,1.11.195,2.409.293,3.897.293,2.098,0,3.878-.397,5.342-1.189,1.463-.793,2.585-1.933,3.366-3.421.762-1.453,1.149-3.175,1.168-5.163h.003V15.005h-5.708ZM265.762,26.427c-.317.647-.756,1.153-1.317,1.518-.561.366-1.195.549-1.902.549-.731,0-1.385-.183-1.957-.549-.574-.366-1.025-.872-1.354-1.518-.329-.646-.507-1.396-.531-2.25.024-.854.201-1.604.531-2.25.329-.646.774-1.153,1.335-1.518.561-.366,1.207-.549,1.939-.549s1.378.183,1.939.549c.561.366,1,.872,1.317,1.518.317.646.476,1.396.476,2.25s-.159,1.604-.476,2.25Z" fill="#07ed71" stroke-width="0"/>
      <path d="M108.479,16.92L116.037,0l-19.719,15.041h-6.315l-4.406,11.628-4.705-11.628h-5.886v-7.318h-5.708v9.452c-.39-.558-.847-1.032-1.372-1.421-1.037-.768-2.312-1.152-3.824-1.152-1.708,0-3.177.384-4.409,1.152-1.232.768-2.183,1.866-2.854,3.293-.671,1.427-1.006,3.141-1.006,5.141,0,1.976.335,3.683,1.006,5.122.671,1.44,1.622,2.543,2.854,3.311,1.232.768,2.701,1.152,4.409,1.152,1.512,0,2.786-.384,3.824-1.152.564-.418.963-.947,1.372-1.565l.256,2.278h5.452V15.99l7.414,15.842c.368.786.385,1.692.045,2.492h0c-.219.512-.512.884-.878,1.116-.366.231-.781.347-1.244.347-.268,0-.567-.061-.897-.183-.329-.122-.665-.305-1.006-.549l-.009.019-.453,4.029.049-.377-.19,1.688c.21.081.428.161.658.238.866.293,1.689.439,2.47.439,1.414,0,2.555-.281,3.421-.842.866-.561,1.591-1.342,2.177-2.341.585-1,1.146-2.159,1.683-3.476l6.475-15.529,10.502,9.085-8.246,15.215,18.106-15.448-12.953-12.669,6.348,1.833ZM68.823,26.438c-.317.647-.756,1.153-1.317,1.518-.561.366-1.195.549-1.902.549-.732,0-1.385-.183-1.957-.549-.573-.366-1.024-.872-1.354-1.518-.329-.646-.506-1.396-.53-2.25.024-.854.201-1.604.53-2.25.329-.646.774-1.153,1.336-1.518.561-.366,1.207-.549,1.939-.549s1.378.183,1.939.549c.561.366,1,.872,1.317,1.518.317.646.476,1.396.476,2.25s-.159,1.604-.476,2.25Z" fill="#07ed71" stroke-width="0"/>
      <path d="M245.67,24.7c0,1.244-.281,2.177-.842,2.799-.562.622-1.391.933-2.488.933-.562-.024-1.049-.17-1.464-.439-.415-.268-.732-.695-.951-1.281-.22-.586-.329-1.354-.329-2.305v-9.367h-5.708v10.428c0,1.903.25,3.464.75,4.683.5,1.22,1.25,2.128,2.25,2.726,1,.597,2.232.896,3.696.896,1.341,0,2.518-.354,3.531-1.061.595-.416,1.107-.957,1.555-1.597v.027l.256,2.192h5.452V15.041h-5.708v9.659Z" fill="#07ed71" stroke-width="0"/>
    </g>
  </g>
</svg>