<?xml version="1.0" encoding="UTF-8"?>
<svg id="b" data-name="Layer 2" xmlns="http://www.w3.org/2000/svg" width="1258.882" height="200" viewBox="0 0 1258.882 200">
  <g id="c" data-name="Layer 1">
    <g>
      <path d="M69.95,111.632c6.548-3.499,11.659-8.326,15.329-14.483,3.667-6.153,5.505-13.126,5.505-20.917,0-8.017-1.892-15.046-5.674-21.087-3.785-6.039-9.006-10.782-15.666-14.228-6.664-3.443-14.287-5.166-22.866-5.166H0v118.561h27.269v-37.482c8.576,0,15.618,2.949,20.216,10.799l14.105,26.683h31.165l-25.04-41.582c.756-.347,1.503-.709,2.234-1.1ZM58.433,87.497c-2.937,2.879-6.832,4.318-11.687,4.318h-19.478v-31.164h18.631c5.082,0,9.173,1.44,12.279,4.318,3.106,2.881,4.658,6.636,4.658,11.264s-1.467,8.384-4.403,11.264Z" fill="#f7f3fd" stroke-width="0"/>
      <path d="M573.79,131.788c-2.599,0-4.516-.79-5.756-2.372-1.246-1.58-1.864-4.065-1.864-7.452v-30.148h19.309v-22.188h-19.309v-26.423h-26.422v26.423h-13.212v22.188h13.212v36.754c0,8.921,2.456,15.78,7.366,20.578,4.913,4.801,12.391,7.199,22.444,7.199,2.954,0,6.018-.578,9.177-1.665l-2.616-23.26c-.852.238-1.632.366-2.328.366Z" fill="#f7f3fd" stroke-width="0"/>
      <path d="M1064.87,121.963s-.19-86.21-.19-86.21h-26.232v92.816c-.061,20.926,20.33,32.087,39.108,25.992l-2.599-23.103c-5.261,1.282-10.089-1.81-10.088-9.496Z" fill="#f7f3fd" stroke-width="0"/>
      <path d="M890.637,123.456l-21.779-53.828h-27.247v-33.875h-26.422v43.754c-1.808-2.582-3.924-4.776-6.352-6.577-4.8-3.556-10.701-5.335-17.699-5.335-7.905,0-14.709,1.779-20.411,5.335-5.702,3.557-10.105,8.638-13.212,15.244-3.107,6.606-4.656,14.541-4.656,23.797,0,9.146,1.55,17.051,4.656,23.712,3.107,6.664,7.51,11.772,13.212,15.329,5.702,3.556,12.505,5.335,20.411,5.335,6.999,0,12.899-1.779,17.699-5.335,2.613-1.937,4.458-4.386,6.352-7.243l1.184,10.545h25.237v-80.296l34.322,73.334c1.704,3.641,1.78,7.834.209,11.535h0c-1.016,2.371-2.372,4.092-4.064,5.166-1.696,1.071-3.616,1.608-5.76,1.608-1.242,0-2.625-.283-4.15-.846-1.525-.566-3.077-1.413-4.656-2.541l-.042.09-2.096,18.65.225-1.743-.879,7.813c.972.375,1.982.744,3.045,1.104,4.006,1.355,7.819,2.033,11.433,2.033,6.547,0,11.825-1.299,15.835-3.897,4.008-2.599,7.368-6.211,10.079-10.839,2.709-4.631,5.306-9.993,7.791-16.09l37.43-89.767h-29.3l-20.395,53.828ZM812.985,122.387c-1.467,2.994-3.5,5.336-6.097,7.029-2.599,1.694-5.533,2.541-8.807,2.541-3.388,0-6.41-.846-9.061-2.541-2.655-1.693-4.742-4.035-6.268-7.029-1.525-2.991-2.344-6.463-2.456-10.416.112-3.952.931-7.424,2.456-10.416,1.525-2.991,3.584-5.336,6.183-7.029,2.595-1.694,5.589-2.541,8.975-2.541s6.378.846,8.977,2.541c2.597,1.693,4.63,4.038,6.097,7.029,1.467,2.992,2.203,6.464,2.203,10.416s-.736,7.425-2.203,10.416Z" fill="#f7f3fd" stroke-width="0"/>
      <path d="M729.313,72.507c-6.097-3.274-13.549-4.911-22.357-4.911-6.436,0-12.084,1.016-16.937,3.049-4.166,1.744-7.737,4.018-10.78,6.759l16.45,14.622c4.944-2.506,11.632-4.469,17.757-1.559,1.163.463,2.168,1.076,2.994,1.857,2.033,1.921,3.444,4.573,4.235,7.96.26,1.116.462,2.317.636,3.557h-20.623c-10.388,0-18.46,2.202-24.22,6.606-1.416,1.083-2.655,2.307-3.723,3.664-.457-9.256-2.302-17.146-5.552-23.65-3.785-7.564-8.891-13.266-15.327-17.106-6.438-3.839-13.665-5.759-21.679-5.759-8.923,0-16.77,1.863-23.545,5.589-6.774,3.727-12.11,8.921-16.004,15.582-3.896,6.664-5.844,14.396-5.844,23.204,0,8.696,1.919,16.373,5.758,23.034,3.838,6.664,9.146,11.885,15.923,15.667,6.774,3.782,14.565,5.674,23.371,5.674,5.985,0,11.629-.846,16.939-2.541,5.306-1.694,10.019-4.29,14.143-7.792.049-.041.093-.087.142-.128l-17.717-15.748c-.682.614-1.416,1.2-2.242,1.735-2.88,1.863-6.412,2.794-10.587,2.794-3.502,0-6.663-.763-9.485-2.286-2.824-1.524-5.025-3.754-6.605-6.691-1.123-2.083-1.826-4.405-2.151-6.944h57.707c-1.439,3.331-2.158,7.227-2.158,11.686,0,8.245,2.766,14.625,8.299,19.139,5.53,4.518,13.322,6.776,23.373,6.776,9.822,0,17.107-3.104,21.848-9.316l1.186,7.284h24.73l.337-47.255c0-8.017-1.523-14.961-4.574-20.833-3.049-5.87-7.621-10.443-13.718-13.719ZM612.981,101.132c.358-2.623,1.139-4.839,2.384-6.606,1.748-2.482,3.896-4.262,6.436-5.336,2.541-1.071,5.052-1.609,7.536-1.609s4.967.538,7.452,1.609c2.483,1.074,4.574,2.854,6.268,5.336,1.205,1.767,1.961,3.983,2.309,6.606h-32.385ZM719.293,128.761c-1.413,2.371-3.361,4.263-5.844,5.674-2.483,1.413-5.364,2.117-8.638,2.117s-5.842-.593-7.705-1.779c-1.864-1.186-2.796-2.794-2.796-4.826,0-2.821,1.241-5.023,3.727-6.606,2.483-1.58,6.16-2.341,11.808-2.341l11.565-.03c0,2.824-.706,5.42-2.117,7.79Z" fill="#f7f3fd" stroke-width="0"/>
      <path d="M234.922,72.507c-6.098-3.274-13.55-4.911-22.357-4.911-6.436,0-12.084,1.016-16.937,3.049-4.167,1.744-7.737,4.018-10.78,6.759l16.449,14.622c4.944-2.506,11.633-4.469,17.758-1.559,1.163.463,2.167,1.076,2.993,1.857,2.033,1.921,3.444,4.573,4.236,7.96.26,1.116.461,2.317.635,3.557h-20.622c-10.389,0-18.461,2.202-24.221,6.606-1.416,1.083-2.655,2.307-3.722,3.664-.457-9.256-2.303-17.146-5.553-23.649-3.785-7.564-8.891-13.266-15.327-17.106-6.437-3.839-13.664-5.759-21.679-5.759-8.922,0-16.769,1.863-23.544,5.589-6.774,3.727-12.11,8.921-16.005,15.582-3.895,6.664-5.842,14.396-5.842,23.204,0,8.696,1.918,16.373,5.758,23.034,3.837,6.664,9.146,11.885,15.922,15.667,6.774,3.782,14.566,5.674,23.372,5.674,5.984,0,11.629-.846,16.938-2.541,5.306-1.694,10.02-4.29,14.143-7.792.049-.041.094-.087.142-.128l-17.717-15.748c-.682.614-1.415,1.2-2.242,1.735-2.879,1.863-6.411,2.794-10.586,2.794-3.502,0-6.664-.763-9.485-2.286-2.824-1.524-5.026-3.754-6.606-6.691-1.123-2.083-1.826-4.405-2.151-6.944h57.708c-1.439,3.331-2.159,7.227-2.159,11.686,0,8.245,2.766,14.625,8.298,19.139,5.531,4.518,13.323,6.776,23.374,6.776,9.823,0,17.107-3.104,21.849-9.316l1.186,7.284h24.729l.337-47.255c0-8.017-1.524-14.961-4.573-20.833-3.049-5.87-7.621-10.443-13.718-13.719ZM118.589,101.132c.358-2.623,1.139-4.839,2.384-6.606,1.749-2.482,3.896-4.262,6.436-5.336,2.541-1.071,5.053-1.609,7.536-1.609s4.968.538,7.453,1.609c2.482,1.074,4.573,2.854,6.267,5.336,1.205,1.767,1.961,3.983,2.309,6.606h-32.385ZM224.902,128.761c-1.414,2.371-3.361,4.263-5.844,5.674-2.484,1.413-5.364,2.117-8.638,2.117s-5.843-.593-7.706-1.779c-1.864-1.186-2.796-2.794-2.796-4.826,0-2.821,1.241-5.023,3.727-6.606,2.483-1.58,6.16-2.341,11.808-2.341l11.565-.03c0,2.824-.706,5.42-2.116,7.79Z" fill="#f7f3fd" stroke-width="0"/>
      <path d="M1012.606,40.919c-6.665-3.444-14.287-5.166-22.867-5.166h-46.577v118.561h27.269v-37.432h20.156c8.469,0,15.977-1.749,22.526-5.25,6.547-3.499,11.658-8.327,15.329-14.482,3.667-6.153,5.505-13.126,5.505-20.917,0-8.017-1.892-15.046-5.674-21.087-3.785-6.04-9.007-10.782-15.666-14.228ZM1001.595,87.497c-2.936,2.879-6.832,4.318-11.687,4.318h-19.478v-31.164h18.631c5.082,0,9.174,1.439,12.279,4.318,3.107,2.88,4.658,6.635,4.658,11.264s-1.467,8.383-4.403,11.264Z" fill="#f7f3fd" stroke-width="0"/>
      <path d="M1232.459,69.459v9.996c-1.808-2.582-3.922-4.776-6.35-6.577-4.802-3.556-10.701-5.335-17.699-5.335-7.905,0-14.709,1.779-20.411,5.335-5.704,3.557-10.107,8.638-13.212,15.244-3.107,6.606-4.656,14.541-4.656,23.797,0,9.146,1.55,17.051,4.656,23.712,3.105,6.664,7.508,11.772,13.212,15.329,5.702,3.555,12.505,5.334,20.411,5.334,6.999,0,12.897-1.779,17.699-5.334,2.611-1.937,4.456-4.386,6.35-7.243l.281,2.507c0,4.856-1.158,10.096-2.906,13.314-1.754,3.219-4.178,5.589-7.283,7.114-3.107,1.524-6.635,2.286-10.587,2.286-5.082,0-9.43-.451-13.041-1.355-3.616-.905-6.665-1.947-9.147-3.134-2.485-1.185-4.63-2.176-6.435-2.964l-.018.036-2.042,18.156.186-1.441.179-1.604-.172,1.553.032-.25-.879,7.813.847-7.563-.007.051-.959,8.519c.49.216.965.436,1.478.644,3.611,1.466,7.986,2.651,13.124,3.557,5.138.902,11.152,1.355,18.04,1.355,9.71,0,17.952-1.836,24.731-5.504,6.772-3.67,11.964-8.95,15.58-15.837,3.527-6.725,5.321-14.699,5.405-23.901l.016-.004v-77.606h-26.423ZM1230.257,122.334c-1.469,2.994-3.5,5.336-6.099,7.029-2.597,1.694-5.531,2.541-8.807,2.541-3.386,0-6.41-.846-9.06-2.541-2.655-1.693-4.744-4.035-6.268-7.029-1.525-2.991-2.346-6.462-2.456-10.416.111-3.952.931-7.424,2.456-10.416,1.523-2.991,3.583-5.336,6.182-7.029,2.595-1.694,5.589-2.541,8.977-2.541s6.378.846,8.975,2.541c2.599,1.693,4.63,4.038,6.099,7.029,1.465,2.992,2.202,6.464,2.202,10.416s-.736,7.425-2.202,10.416Z" fill="#f7f3fd" stroke-width="0"/>
      <path d="M502.167,78.325L537.158,0l-91.283,69.628h-29.235l-20.395,53.828-21.78-53.828h-27.247v-33.875h-26.423v43.754c-1.807-2.582-3.923-4.776-6.35-6.577-4.801-3.556-10.701-5.335-17.7-5.335-7.905,0-14.709,1.779-20.41,5.335-5.703,3.557-10.106,8.638-13.212,15.244-3.107,6.606-4.656,14.541-4.656,23.797,0,9.146,1.55,17.051,4.656,23.712,3.106,6.664,7.509,11.772,13.212,15.329,5.701,3.556,12.504,5.335,20.41,5.335,6.999,0,12.899-1.779,17.7-5.335,2.612-1.937,4.457-4.386,6.35-7.243l1.187,10.545h25.236v-80.296l34.321,73.334c1.704,3.641,1.78,7.834.209,11.535h0c-1.016,2.371-2.372,4.092-4.064,5.166-1.695,1.071-3.615,1.608-5.76,1.608-1.242,0-2.625-.283-4.15-.846-1.524-.566-3.077-1.413-4.656-2.541l-.04.09-2.098,18.65.225-1.743-.879,7.813c.972.375,1.982.744,3.045,1.104,4.007,1.355,7.819,2.033,11.434,2.033,6.546,0,11.825-1.299,15.835-3.897,4.007-2.599,7.367-6.211,10.078-10.839,2.71-4.631,5.306-9.993,7.792-16.09l29.974-71.887,48.615,42.058-38.173,70.433,83.817-71.512-59.961-58.648,29.384,8.485ZM318.593,122.387c-1.467,2.994-3.5,5.336-6.097,7.029-2.599,1.694-5.533,2.541-8.807,2.541-3.387,0-6.41-.846-9.061-2.541-2.654-1.693-4.742-4.035-6.268-7.029-1.524-2.991-2.344-6.463-2.456-10.416.112-3.952.931-7.424,2.456-10.416,1.525-2.991,3.584-5.336,6.183-7.029,2.595-1.694,5.589-2.541,8.976-2.541s6.377.846,8.976,2.541c2.597,1.693,4.63,4.038,6.097,7.029,1.467,2.992,2.203,6.464,2.203,10.416s-.735,7.425-2.203,10.416Z" fill="#f7f3fd" stroke-width="0"/>
      <path d="M1137.248,114.342c0,5.759-1.299,10.078-3.896,12.958-2.601,2.879-6.438,4.318-11.518,4.318-2.601-.112-4.857-.788-6.775-2.033-1.921-1.241-3.388-3.219-4.403-5.928-1.017-2.711-1.523-6.267-1.523-10.671v-43.359h-26.423v48.271c0,8.808,1.156,16.035,3.472,21.68,2.312,5.648,5.784,9.853,10.416,12.618,4.628,2.766,10.334,4.15,17.107,4.15,6.208,0,11.658-1.638,16.345-4.911,2.753-1.925,5.125-4.432,7.199-7.393v.124l1.184,10.148h25.237v-84.686h-26.422v44.714Z" fill="#f7f3fd" stroke-width="0"/>
    </g>
  </g>
</svg>